<svg width="29" height="27" viewBox="0 0 29 27" fill="none" xmlns="http://www.w3.org/2000/svg">
<path d="M7.34648 13.9031C7.16083 13.9031 6.98279 13.8347 6.85151 13.7128C6.72023 13.5909 6.64648 13.4255 6.64648 13.2531C6.64648 13.0808 6.72023 12.9154 6.85151 12.7935C6.98279 12.6716 7.16083 12.6031 7.34648 12.6031H21.3465C21.5321 12.6031 21.7102 12.6716 21.8415 12.7935C21.9727 12.9154 22.0465 13.0808 22.0465 13.2531C22.0465 13.4255 21.9727 13.5909 21.8415 13.7128C21.7102 13.8347 21.5321 13.9031 21.3465 13.9031H7.34648Z" fill="#597F34"/>
<path d="M13.6465 6.75315C13.6465 6.58076 13.7202 6.41543 13.8515 6.29353C13.9828 6.17163 14.1608 6.10315 14.3465 6.10315C14.5321 6.10315 14.7102 6.17163 14.8415 6.29353C14.9727 6.41543 15.0465 6.58076 15.0465 6.75315V19.7531C15.0465 19.9255 14.9727 20.0909 14.8415 20.2128C14.7102 20.3347 14.5321 20.4031 14.3465 20.4031C14.1608 20.4031 13.9828 20.3347 13.8515 20.2128C13.7202 20.0909 13.6465 19.9255 13.6465 19.7531V6.75315Z" fill="#597F34"/>
</svg>
