<svg width="51" height="51" viewBox="0 0 51 51" fill="none" xmlns="http://www.w3.org/2000/svg">
<path d="M25.2549 42.5C15.8549 42.5 8.25488 34.9 8.25488 25.5C8.25488 16.1 15.8549 8.5 25.2549 8.5C34.6549 8.5 42.2549 16.1 42.2549 25.5C42.2549 34.9 34.6549 42.5 25.2549 42.5ZM25.2549 10.5C16.9549 10.5 10.2549 17.2 10.2549 25.5C10.2549 33.8 16.9549 40.5 25.2549 40.5C33.5549 40.5 40.2549 33.8 40.2549 25.5C40.2549 17.2 33.5549 10.5 25.2549 10.5Z" fill="#FFFCE9"/>
<path d="M16.2549 24.5H34.2549V26.5H16.2549V24.5Z" fill="#FFFCE9"/>
<path d="M24.2549 16.5H26.2549V34.5H24.2549V16.5Z" fill="#FFFCE9"/>
</svg>
