<svg width="51" height="51" viewBox="0 0 51 51" fill="none" xmlns="http://www.w3.org/2000/svg">
<path d="M25.667 42.5C16.267 42.5 8.66699 34.9 8.66699 25.5C8.66699 16.1 16.267 8.5 25.667 8.5C35.067 8.5 42.667 16.1 42.667 25.5C42.667 34.9 35.067 42.5 25.667 42.5ZM25.667 10.5C17.367 10.5 10.667 17.2 10.667 25.5C10.667 33.8 17.367 40.5 25.667 40.5C33.967 40.5 40.667 33.8 40.667 25.5C40.667 17.2 33.967 10.5 25.667 10.5Z" fill="#597F34"/>
<path d="M16.667 24.5H34.667V26.5H16.667V24.5Z" fill="#597F34"/>
<path d="M24.667 16.5H26.667V34.5H24.667V16.5Z" fill="#597F34"/>
</svg>
