<svg width="31" height="27" viewBox="0 0 31 27" fill="none" xmlns="http://www.w3.org/2000/svg">
<g clip-path="url(#clip0_97_56)">
<path d="M7.05762 0.136169C7.30626 0.136169 7.54471 0.224537 7.72053 0.381834C7.89635 0.53913 7.99512 0.752469 7.99512 0.974919V1.81367H22.9951V0.974919C22.9951 0.752469 23.0939 0.53913 23.2697 0.381834C23.4455 0.224537 23.684 0.136169 23.9326 0.136169C24.1813 0.136169 24.4197 0.224537 24.5955 0.381834C24.7713 0.53913 24.8701 0.752469 24.8701 0.974919V1.81367H26.7451C27.7397 1.81367 28.6935 2.16714 29.3968 2.79633C30.1 3.42551 30.4951 4.27887 30.4951 5.16867V23.6212C30.4951 24.511 30.1 25.3643 29.3968 25.9935C28.6935 26.6227 27.7397 26.9762 26.7451 26.9762H4.24512C3.25056 26.9762 2.29673 26.6227 1.59347 25.9935C0.890205 25.3643 0.495117 24.511 0.495117 23.6212V5.16867C0.495117 4.27887 0.890205 3.42551 1.59347 2.79633C2.29673 2.16714 3.25056 1.81367 4.24512 1.81367H6.12012V0.974919C6.12012 0.752469 6.21889 0.53913 6.3947 0.381834C6.57052 0.224537 6.80898 0.136169 7.05762 0.136169ZM4.24512 3.49117C3.74784 3.49117 3.27092 3.66791 2.91929 3.9825C2.56766 4.29709 2.37012 4.72377 2.37012 5.16867V6.84617H28.6201V5.16867C28.6201 4.72377 28.4226 4.29709 28.0709 3.9825C27.7193 3.66791 27.2424 3.49117 26.7451 3.49117H4.24512ZM28.6201 8.52367H2.37012V23.6212C2.37012 24.0661 2.56766 24.4927 2.91929 24.8073C3.27092 25.1219 3.74784 25.2987 4.24512 25.2987H26.7451C27.2424 25.2987 27.7193 25.1219 28.0709 24.8073C28.4226 24.4927 28.6201 24.0661 28.6201 23.6212V8.52367Z" fill="#597F34"/>
<path d="M21.1201 12.7174C21.1201 12.495 21.2189 12.2816 21.3947 12.1243C21.5705 11.967 21.809 11.8787 22.0576 11.8787H23.9326C24.1813 11.8787 24.4197 11.967 24.5955 12.1243C24.7713 12.2816 24.8701 12.495 24.8701 12.7174V14.3949C24.8701 14.6174 24.7713 14.8307 24.5955 14.988C24.4197 15.1453 24.1813 15.2337 23.9326 15.2337H22.0576C21.809 15.2337 21.5705 15.1453 21.3947 14.988C21.2189 14.8307 21.1201 14.6174 21.1201 14.3949V12.7174Z" fill="#597F34"/>
</g>
<defs>
<clipPath id="clip0_97_56">
<rect width="30" height="26.84" fill="white" transform="translate(0.495117 0.136169)"/>
</clipPath>
</defs>
</svg>
