<svg width="30" height="28" viewBox="0 0 30 28" fill="none" xmlns="http://www.w3.org/2000/svg">
<path d="M0 2.42087C0 1.91241 0.197544 1.42478 0.549175 1.06524C0.900806 0.705707 1.37772 0.503723 1.875 0.503723H28.125C28.6223 0.503723 29.0992 0.705707 29.4508 1.06524C29.8025 1.42478 30 1.91241 30 2.42087V6.25515C30 6.76361 29.8025 7.25124 29.4508 7.61078C29.0992 7.97031 28.6223 8.17229 28.125 8.17229V22.5509C28.125 23.822 27.6311 25.0411 26.7521 25.9399C25.873 26.8388 24.6807 27.3437 23.4375 27.3437H6.5625C5.3193 27.3437 4.12701 26.8388 3.24794 25.9399C2.36886 25.0411 1.875 23.822 1.875 22.5509V8.17229C1.37772 8.17229 0.900806 7.97031 0.549175 7.61078C0.197544 7.25124 0 6.76361 0 6.25515V2.42087ZM3.75 8.17229V22.5509C3.75 23.3136 4.04632 24.045 4.57376 24.5843C5.10121 25.1236 5.81658 25.4266 6.5625 25.4266H23.4375C24.1834 25.4266 24.8988 25.1236 25.4262 24.5843C25.9537 24.045 26.25 23.3136 26.25 22.5509V8.17229H3.75ZM28.125 2.42087H1.875V6.25515H28.125V2.42087ZM9.375 12.9652C9.375 12.7109 9.47377 12.4671 9.64959 12.2873C9.8254 12.1076 10.0639 12.0066 10.3125 12.0066H19.6875C19.9361 12.0066 20.1746 12.1076 20.3504 12.2873C20.5262 12.4671 20.625 12.7109 20.625 12.9652C20.625 13.2194 20.5262 13.4632 20.3504 13.643C20.1746 13.8227 19.9361 13.9237 19.6875 13.9237H10.3125C10.0639 13.9237 9.8254 13.8227 9.64959 13.643C9.47377 13.4632 9.375 13.2194 9.375 12.9652Z" fill="#597F34"/>
</svg>
