<svg width="22" height="20" viewBox="0 0 22 20" fill="none" xmlns="http://www.w3.org/2000/svg">
<path fill-rule="evenodd" clip-rule="evenodd" d="M1.94859 10.0761C1.94859 12.2465 2.92906 14.328 4.6743 15.8628C6.41955 17.3975 8.7866 18.2597 11.2548 18.2597C13.7229 18.2597 16.09 17.3975 17.8352 15.8628C19.5804 14.328 20.5609 12.2465 20.5609 10.0761C20.5609 7.90572 19.5804 5.8242 17.8352 4.28949C16.09 2.75478 13.7229 1.89259 11.2548 1.89259C8.7866 1.89259 6.41955 2.75478 4.6743 4.28949C2.92906 5.8242 1.94859 7.90572 1.94859 10.0761ZM21.8904 10.0761C21.8904 12.5566 20.7698 14.9355 18.7753 16.6894C16.7807 18.4434 14.0755 19.4287 11.2548 19.4287C8.43401 19.4287 5.7288 18.4434 3.73424 16.6894C1.73968 14.9355 0.619141 12.5566 0.619141 10.0761C0.619141 7.59566 1.73968 5.21678 3.73424 3.46283C5.7288 1.70887 8.43401 0.723511 11.2548 0.723511C14.0755 0.723511 16.7807 1.70887 18.7753 3.46283C20.7698 5.21678 21.8904 7.59566 21.8904 10.0761ZM15.9078 9.49159C16.0841 9.49159 16.2532 9.55317 16.3779 9.6628C16.5025 9.77242 16.5726 9.9211 16.5726 10.0761C16.5726 10.2312 16.5025 10.3798 16.3779 10.4895C16.2532 10.5991 16.0841 10.6607 15.9078 10.6607H8.20632L11.0607 13.1695C11.1225 13.2239 11.1715 13.2884 11.2049 13.3594C11.2384 13.4304 11.2556 13.5065 11.2556 13.5834C11.2556 13.6602 11.2384 13.7363 11.2049 13.8073C11.1715 13.8783 11.1225 13.9429 11.0607 13.9972C10.9988 14.0516 10.9255 14.0947 10.8447 14.1241C10.764 14.1535 10.6774 14.1686 10.59 14.1686C10.5026 14.1686 10.4161 14.1535 10.3353 14.1241C10.2546 14.0947 10.1812 14.0516 10.1194 13.9972L6.13105 10.49C6.06914 10.4357 6.02003 10.3712 5.98652 10.3002C5.95301 10.2291 5.93576 10.153 5.93576 10.0761C5.93576 9.99924 5.95301 9.92311 5.98652 9.85209C6.02003 9.78108 6.06914 9.71657 6.13105 9.66227L10.1194 6.15504C10.2442 6.04528 10.4135 5.98362 10.59 5.98362C10.7665 5.98362 10.9358 6.04528 11.0607 6.15504C11.1855 6.2648 11.2556 6.41367 11.2556 6.5689C11.2556 6.72412 11.1855 6.87299 11.0607 6.98275L8.20632 9.49159H15.9078Z" fill="#597F34"/>
</svg>
