<svg width="22" height="20" viewBox="0 0 22 20" fill="none" xmlns="http://www.w3.org/2000/svg">
<path fill-rule="evenodd" clip-rule="evenodd" d="M20.1918 10.0833C20.1691 7.91297 19.1669 5.83711 17.4056 4.31238C15.6443 2.78766 13.2683 1.93895 10.8002 1.95298C8.33211 1.96701 5.97412 2.84262 4.24498 4.38718C2.51584 5.93175 1.55718 8.01875 1.57989 10.1891C1.60261 12.3594 2.60484 14.4352 4.36612 15.96C6.12738 17.4847 8.50342 18.3334 10.9715 18.3194C13.4396 18.3053 15.7976 17.4297 17.5267 15.8852C19.2559 14.3406 20.2145 12.2536 20.1918 10.0833ZM0.25047 10.1966C0.224508 7.71626 1.32012 5.33111 3.29628 3.5659C5.27245 1.80068 7.96729 0.799986 10.788 0.783955C13.6087 0.767923 16.3241 1.73787 18.337 3.48041C20.3499 5.22296 21.4953 7.59537 21.5212 10.0757C21.5472 12.5561 20.4516 14.9412 18.4754 16.7065C16.4993 18.4717 13.8044 19.4724 10.9838 19.4884C8.16307 19.5044 5.4476 18.5345 3.43472 16.7919C1.42184 15.0494 0.276432 12.677 0.25047 10.1966ZM6.23899 10.7471C6.0627 10.7481 5.89299 10.6875 5.76718 10.5786C5.64137 10.4697 5.56979 10.3214 5.56817 10.1664C5.56654 10.0114 5.63502 9.8623 5.75853 9.75198C5.88204 9.64165 6.05047 9.57911 6.22676 9.5781L13.9281 9.53433L11.0476 7.04182C10.9852 6.98783 10.9355 6.92359 10.9013 6.85278C10.8671 6.78196 10.8491 6.70595 10.8483 6.6291C10.8475 6.55224 10.8639 6.47604 10.8966 6.40484C10.9293 6.33364 10.9777 6.26885 11.0389 6.21415C11.1001 6.15946 11.1731 6.11593 11.2535 6.08606C11.3339 6.05619 11.4203 6.04056 11.5077 6.04006C11.5951 6.03957 11.6818 6.05421 11.7629 6.08316C11.844 6.11212 11.9178 6.15481 11.9801 6.2088L16.0051 9.69322C16.0676 9.74716 16.1174 9.81139 16.1516 9.88221C16.1859 9.95303 16.2039 10.0291 16.2047 10.1059C16.2055 10.1828 16.1891 10.2591 16.1563 10.3303C16.1236 10.4015 16.0751 10.4662 16.0138 10.5209L12.0622 14.0506C11.9386 14.1611 11.7699 14.2237 11.5934 14.2247C11.4169 14.2257 11.247 14.165 11.121 14.056C10.995 13.9469 10.9234 13.7985 10.9217 13.6433C10.9201 13.488 10.9887 13.3388 11.1123 13.2283L13.9403 10.7034L6.23899 10.7471Z" fill="#597F34"/>
</svg>
