<svg width="31" height="29" viewBox="0 0 31 29" fill="none" xmlns="http://www.w3.org/2000/svg">
<path d="M25.3457 5.00414H21.3832L19.0957 2.67081H11.5957L9.3082 5.00414H5.3457C4.68266 5.00414 4.04678 5.24997 3.57794 5.68756C3.1091 6.12514 2.8457 6.71864 2.8457 7.33747V21.3375C2.8457 21.9563 3.1091 22.5498 3.57794 22.9874C4.04678 23.425 4.68266 23.6708 5.3457 23.6708H25.3457C26.0087 23.6708 26.6446 23.425 27.1135 22.9874C27.5823 22.5498 27.8457 21.9563 27.8457 21.3375V7.33747C27.8457 6.71864 27.5823 6.12514 27.1135 5.68756C26.6446 5.24997 26.0087 5.00414 25.3457 5.00414ZM25.3457 21.3375H5.3457V7.33747H10.4082L12.6957 5.00414H17.9957L20.2832 7.33747H25.3457V21.3375ZM15.3457 8.50414C13.6881 8.50414 12.0984 9.11872 10.9263 10.2127C9.75418 11.3066 9.0957 12.7904 9.0957 14.3375C9.0957 15.8846 9.75418 17.3683 10.9263 18.4623C12.0984 19.5562 13.6881 20.1708 15.3457 20.1708C17.0033 20.1708 18.593 19.5562 19.7651 18.4623C20.9372 17.3683 21.5957 15.8846 21.5957 14.3375C21.5957 12.7904 20.9372 11.3066 19.7651 10.2127C18.593 9.11872 17.0033 8.50414 15.3457 8.50414ZM15.3457 17.8375C14.3511 17.8375 13.3973 17.4687 12.6941 16.8123C11.9908 16.156 11.5957 15.2657 11.5957 14.3375C11.5957 13.4092 11.9908 12.519 12.6941 11.8626C13.3973 11.2062 14.3511 10.8375 15.3457 10.8375C16.3403 10.8375 17.2941 11.2062 17.9974 11.8626C18.7006 12.519 19.0957 13.4092 19.0957 14.3375C19.0957 15.2657 18.7006 16.156 17.9974 16.8123C17.2941 17.4687 16.3403 17.8375 15.3457 17.8375Z" fill="#FFFCE9"/>
</svg>
