<svg width="34" height="34" viewBox="0 0 34 34" fill="none" xmlns="http://www.w3.org/2000/svg">
<path d="M28.334 5.66668H23.8431L21.2506 2.83334H12.7506L10.1581 5.66668H5.66732C4.91587 5.66668 4.1952 5.96519 3.66385 6.49654C3.1325 7.02789 2.83398 7.74856 2.83398 8.50001V25.5C2.83398 26.2515 3.1325 26.9721 3.66385 27.5035C4.1952 28.0348 4.91587 28.3333 5.66732 28.3333H28.334C29.0854 28.3333 29.8061 28.0348 30.3374 27.5035C30.8688 26.9721 31.1673 26.2515 31.1673 25.5V8.50001C31.1673 7.74856 30.8688 7.02789 30.3374 6.49654C29.8061 5.96519 29.0854 5.66668 28.334 5.66668ZM28.334 25.5H5.66732V8.50001H11.4048L13.9973 5.66668H20.004L22.5965 8.50001H28.334V25.5ZM17.0006 9.91668C15.122 9.91668 13.3204 10.663 11.992 11.9913C10.6636 13.3197 9.91732 15.1214 9.91732 17C9.91732 18.8786 10.6636 20.6803 11.992 22.0087C13.3204 23.3371 15.122 24.0833 17.0006 24.0833C18.8793 24.0833 20.6809 23.3371 22.0093 22.0087C23.3377 20.6803 24.084 18.8786 24.084 17C24.084 15.1214 23.3377 13.3197 22.0093 11.9913C20.6809 10.663 18.8793 9.91668 17.0006 9.91668ZM17.0006 21.25C15.8735 21.25 14.7925 20.8022 13.9954 20.0052C13.1984 19.2082 12.7506 18.1272 12.7506 17C12.7506 15.8728 13.1984 14.7918 13.9954 13.9948C14.7925 13.1978 15.8735 12.75 17.0006 12.75C18.1278 12.75 19.2088 13.1978 20.0059 13.9948C20.8029 14.7918 21.2506 15.8728 21.2506 17C21.2506 18.1272 20.8029 19.2082 20.0059 20.0052C19.2088 20.8022 18.1278 21.25 17.0006 21.25Z" fill="#597F34"/>
</svg>
