<svg width="30" height="28" viewBox="0 0 30 28" fill="none" xmlns="http://www.w3.org/2000/svg">
<path d="M5.02043 20.0827C5.21502 20.27 5.36413 20.4961 5.45713 20.745C5.55013 20.9939 5.58473 21.2594 5.55847 21.5226C5.42671 22.7406 5.17693 23.9441 4.81234 25.1177C7.42754 24.5371 9.02478 23.8648 9.75029 23.5125C10.1618 23.3126 10.6357 23.2653 11.0813 23.3794C12.3588 23.706 13.6755 23.8704 14.9976 23.8684C22.4888 23.8684 28.1204 18.8226 28.1204 13.083C28.1204 7.34514 22.4888 2.29757 14.9976 2.29757C7.50628 2.29757 1.87469 7.34514 1.87469 13.083C1.87469 15.7218 3.03138 18.1701 5.02043 20.0827ZM4.09621 27.1022C3.65203 27.1866 3.20642 27.2639 2.75955 27.3341C2.38461 27.3916 2.09966 27.0177 2.24776 26.6834C2.41422 26.307 2.56679 25.925 2.70518 25.5383L2.71081 25.5204C3.17573 24.2261 3.55442 22.7377 3.69315 21.3518C1.3929 19.1408 0 16.2467 0 13.083C0 6.13358 6.71516 0.5 14.9976 0.5C23.28 0.5 29.9951 6.13358 29.9951 13.083C29.9951 20.0324 23.28 25.666 14.9976 25.666C13.5121 25.6679 12.0329 25.4829 10.5976 25.1159C9.62281 25.5887 7.52502 26.4497 4.09621 27.1022Z" fill="#597F34"/>
<path d="M7.85547 9.18352C7.85547 8.97415 7.95893 8.77336 8.14309 8.62532C8.32724 8.47727 8.57701 8.3941 8.83745 8.3941H22.5852C22.8457 8.3941 23.0954 8.47727 23.2796 8.62532C23.4637 8.77336 23.5672 8.97415 23.5672 9.18352C23.5672 9.39288 23.4637 9.59367 23.2796 9.74171C23.0954 9.88976 22.8457 9.97293 22.5852 9.97293H8.83745C8.57701 9.97293 8.32724 9.88976 8.14309 9.74171C7.95893 9.59367 7.85547 9.39288 7.85547 9.18352ZM7.85547 13.1306C7.85547 12.9212 7.95893 12.7204 8.14309 12.5724C8.32724 12.4243 8.57701 12.3412 8.83745 12.3412H22.5852C22.8457 12.3412 23.0954 12.4243 23.2796 12.5724C23.4637 12.7204 23.5672 12.9212 23.5672 13.1306C23.5672 13.3399 23.4637 13.5407 23.2796 13.6888C23.0954 13.8368 22.8457 13.92 22.5852 13.92H8.83745C8.57701 13.92 8.32724 13.8368 8.14309 13.6888C7.95893 13.5407 7.85547 13.3399 7.85547 13.1306ZM7.85547 17.0776C7.85547 16.8683 7.95893 16.6675 8.14309 16.5194C8.32724 16.3714 8.57701 16.2882 8.83745 16.2882H16.6933C16.9538 16.2882 17.2035 16.3714 17.3877 16.5194C17.5718 16.6675 17.6753 16.8683 17.6753 17.0776C17.6753 17.287 17.5718 17.4878 17.3877 17.6358C17.2035 17.7839 16.9538 17.867 16.6933 17.867H8.83745C8.57701 17.867 8.32724 17.7839 8.14309 17.6358C7.95893 17.4878 7.85547 17.287 7.85547 17.0776Z" fill="#597F34"/>
</svg>
