<svg width="30" height="34" viewBox="0 0 30 34" fill="none" xmlns="http://www.w3.org/2000/svg">
<path d="M8.16992 7.12305C8.16992 5.75552 8.64732 4.44401 9.49709 3.47703C10.3469 2.51004 11.4994 1.9668 12.7012 1.9668C13.9029 1.9668 15.0555 2.51004 15.9052 3.47703C16.755 4.44401 17.2324 5.75552 17.2324 7.12305V25.6855C17.2324 26.5061 16.946 27.293 16.4361 27.8732C15.9263 28.4534 15.2347 28.7793 14.5137 28.7793C13.7926 28.7793 13.1011 28.4534 12.5912 27.8732C12.0814 27.293 11.7949 26.5061 11.7949 25.6855V11.248C11.7949 10.9745 11.8904 10.7122 12.0604 10.5188C12.2303 10.3254 12.4608 10.2168 12.7012 10.2168C12.9415 10.2168 13.172 10.3254 13.342 10.5188C13.5119 10.7122 13.6074 10.9745 13.6074 11.248V25.6855C13.6074 25.9591 13.7029 26.2214 13.8729 26.4148C14.0428 26.6081 14.2733 26.7168 14.5137 26.7168C14.754 26.7168 14.9845 26.6081 15.1545 26.4148C15.3244 26.2214 15.4199 25.9591 15.4199 25.6855V7.12305C15.4199 6.71677 15.3496 6.31447 15.213 5.93912C15.0763 5.56377 14.8761 5.22272 14.6236 4.93544C14.3712 4.64815 14.0714 4.42027 13.7416 4.26479C13.4117 4.10932 13.0582 4.0293 12.7012 4.0293C12.3441 4.0293 11.9906 4.10932 11.6608 4.26479C11.3309 4.42027 11.0312 4.64815 10.7787 4.93544C10.5263 5.22272 10.326 5.56377 10.1894 5.93912C10.0527 6.31447 9.98242 6.71677 9.98242 7.12305V25.6855C9.98242 27.0531 10.4598 28.3646 11.3096 29.3316C12.1594 30.2986 13.3119 30.8418 14.5137 30.8418C15.7154 30.8418 16.868 30.2986 17.7177 29.3316C18.5675 28.3646 19.0449 27.0531 19.0449 25.6855V11.248C19.0449 10.9745 19.1404 10.7122 19.3104 10.5188C19.4803 10.3254 19.7108 10.2168 19.9512 10.2168C20.1915 10.2168 20.422 10.3254 20.592 10.5188C20.7619 10.7122 20.8574 10.9745 20.8574 11.248V25.6855C20.8574 27.6001 20.1891 29.4362 18.9994 30.79C17.8097 32.1438 16.1961 32.9043 14.5137 32.9043C12.8312 32.9043 11.2176 32.1438 10.028 30.79C8.83828 29.4362 8.16992 27.6001 8.16992 25.6855V7.12305Z" fill="#597F34"/>
</svg>
