<svg width="28" height="27" viewBox="0 0 28 27" fill="none" xmlns="http://www.w3.org/2000/svg">
<path d="M8.43945 5.39996C8.43945 4.32252 8.88393 3.28921 9.6751 2.52734C10.4663 1.76548 11.5393 1.33746 12.6582 1.33746C13.7771 1.33746 14.8501 1.76548 15.6413 2.52734C16.4325 3.28921 16.877 4.32252 16.877 5.39996V20.025C16.877 20.6714 16.6103 21.2914 16.1356 21.7485C15.6609 22.2057 15.017 22.4625 14.3457 22.4625C13.6744 22.4625 13.0305 22.2057 12.5558 21.7485C12.0811 21.2914 11.8145 20.6714 11.8145 20.025V8.64996C11.8145 8.43447 11.9033 8.22781 12.0616 8.07544C12.2198 7.92307 12.4344 7.83746 12.6582 7.83746C12.882 7.83746 13.0966 7.92307 13.2548 8.07544C13.4131 8.22781 13.502 8.43447 13.502 8.64996V20.025C13.502 20.2405 13.5908 20.4471 13.7491 20.5995C13.9073 20.7519 14.1219 20.8375 14.3457 20.8375C14.5695 20.8375 14.7841 20.7519 14.9423 20.5995C15.1006 20.4471 15.1895 20.2405 15.1895 20.025V5.39996C15.1895 5.07987 15.124 4.7629 14.9968 4.46717C14.8696 4.17144 14.6831 3.90273 14.4481 3.67639C14.213 3.45005 13.934 3.2705 13.6269 3.14801C13.3198 3.02551 12.9906 2.96246 12.6582 2.96246C12.3258 2.96246 11.9966 3.02551 11.6895 3.14801C11.3824 3.2705 11.1034 3.45005 10.8683 3.67639C10.6333 3.90273 10.4468 4.17144 10.3196 4.46717C10.1924 4.7629 10.127 5.07987 10.127 5.39996V20.025C10.127 21.1024 10.5714 22.1357 11.3626 22.8976C12.1538 23.6595 13.2268 24.0875 14.3457 24.0875C15.4646 24.0875 16.5376 23.6595 17.3288 22.8976C18.12 22.1357 18.5645 21.1024 18.5645 20.025V8.64996C18.5645 8.43447 18.6533 8.22781 18.8116 8.07544C18.9698 7.92307 19.1844 7.83746 19.4082 7.83746C19.632 7.83746 19.8466 7.92307 20.0048 8.07544C20.1631 8.22781 20.252 8.43447 20.252 8.64996V20.025C20.252 21.5334 19.6297 22.98 18.5221 24.0466C17.4144 25.1132 15.9121 25.7125 14.3457 25.7125C12.7793 25.7125 11.277 25.1132 10.1694 24.0466C9.06172 22.98 8.43945 21.5334 8.43945 20.025V5.39996Z" fill="#FFFCE9"/>
</svg>
