<svg width="31" height="28" viewBox="0 0 31 28" fill="none" xmlns="http://www.w3.org/2000/svg">
<g clip-path="url(#clip0_89_156)">
<path d="M2.54199 4.95336C4.20137 4.33259 6.58074 3.66317 8.89449 3.45513C11.3882 3.23031 13.5032 3.56083 14.7295 4.71679L14.7295 21.0681C12.9764 20.1789 10.7545 20.0564 8.70512 20.241C6.49262 20.4423 4.26137 21.0144 2.54199 21.6017L2.54199 4.95336ZM16.6045 4.71679C17.8307 3.56083 19.9457 3.23031 22.4395 3.45513C24.7532 3.66317 27.1326 4.33259 28.792 4.95336L28.792 21.6017C27.0707 21.0144 24.8414 20.4406 22.6289 20.2427C20.5776 20.0564 18.3576 20.1772 16.6045 21.0681L16.6045 4.71679ZM15.667 3.20011C13.8201 1.77906 11.1426 1.56766 8.70512 1.78577C5.86637 2.04246 3.00137 2.91321 1.21637 3.63968C1.05258 3.70633 0.913696 3.81375 0.816282 3.94911C0.718867 4.08447 0.667042 4.24206 0.666992 4.40305L0.666992 22.8583C0.667036 22.9986 0.706437 23.1367 0.781587 23.2599C0.856737 23.3832 0.965233 23.4875 1.09714 23.5635C1.22904 23.6394 1.38014 23.6846 1.53659 23.6947C1.69303 23.7049 1.84983 23.6798 1.99262 23.6217C3.64637 22.9506 6.31074 22.1436 8.89262 21.9104C11.5345 21.6721 13.7489 22.0563 14.9357 23.3817C15.0236 23.4797 15.1349 23.5588 15.2615 23.6131C15.388 23.6675 15.5266 23.6957 15.667 23.6957C15.8074 23.6957 15.946 23.6675 16.0725 23.6131C16.1991 23.5588 16.3104 23.4797 16.3982 23.3817C17.5851 22.0563 19.7995 21.6721 22.4395 21.9104C25.0232 22.1436 27.6895 22.9506 29.3414 23.6217C29.4842 23.6798 29.641 23.7049 29.7974 23.6947C29.9538 23.6846 30.1049 23.6394 30.2368 23.5635C30.3688 23.4875 30.4772 23.3832 30.5524 23.2599C30.6275 23.1367 30.6669 22.9986 30.667 22.8583L30.667 4.40305C30.6669 4.24206 30.6151 4.08447 30.5177 3.94911C30.4203 3.81375 30.2814 3.70633 30.1176 3.63968C28.3326 2.91321 25.4676 2.04246 22.6289 1.78577C20.1914 1.56598 17.5139 1.77906 15.667 3.20011Z" fill="#597F34"/>
</g>
<defs>
<clipPath id="clip0_89_156">
<rect width="30" height="26.844" fill="white" transform="translate(0.666992 0.208679)"/>
</clipPath>
</defs>
</svg>
