<svg width="31" height="30" viewBox="0 0 31 30" fill="none" xmlns="http://www.w3.org/2000/svg">
<path fill-rule="evenodd" clip-rule="evenodd" d="M20.751 11.259C20.751 12.5851 20.2242 13.8569 19.2865 14.7945C18.3488 15.7322 17.0771 16.259 15.751 16.259C14.4249 16.259 13.1531 15.7322 12.2154 14.7945C11.2778 13.8569 10.751 12.5851 10.751 11.259C10.751 9.93292 11.2778 8.66115 12.2154 7.72347C13.1531 6.78579 14.4249 6.259 15.751 6.259C17.0771 6.259 18.3488 6.78579 19.2865 7.72347C20.2242 8.66115 20.751 9.93292 20.751 11.259ZM18.251 11.259C18.251 11.922 17.9876 12.5579 17.5187 13.0268C17.0499 13.4956 16.414 13.759 15.751 13.759C15.0879 13.759 14.4521 13.4956 13.9832 13.0268C13.5144 12.5579 13.251 11.922 13.251 11.259C13.251 10.596 13.5144 9.96008 13.9832 9.49124C14.4521 9.02239 15.0879 8.759 15.751 8.759C16.414 8.759 17.0499 9.02239 17.5187 9.49124C17.9876 9.96008 18.251 10.596 18.251 11.259Z" fill="#D4A373"/>
<path fill-rule="evenodd" clip-rule="evenodd" d="M15.751 1.259C8.15723 1.259 2.00098 7.41525 2.00098 15.009C2.00098 22.6028 8.15723 28.759 15.751 28.759C23.3447 28.759 29.501 22.6028 29.501 15.009C29.501 7.41525 23.3447 1.259 15.751 1.259ZM4.50098 15.009C4.50098 17.6215 5.39223 20.0265 6.88598 21.9365C7.93501 20.5589 9.28835 19.4424 10.8403 18.6744C12.3922 17.9063 14.1007 17.5075 15.8322 17.509C17.5414 17.5074 19.2284 17.8959 20.7646 18.645C22.3009 19.3941 23.6459 20.4839 24.6972 21.8315C25.7803 20.411 26.5095 18.753 26.8246 16.9947C27.1397 15.2365 27.0315 13.4284 26.5091 11.7202C25.9867 10.012 25.065 8.45281 23.8203 7.17155C22.5757 5.89029 21.0438 4.92383 19.3515 4.35214C17.6591 3.78045 15.855 3.61997 14.0883 3.88397C12.3216 4.14797 10.6432 4.82887 9.19194 5.87032C7.74066 6.91177 6.55824 8.28384 5.74251 9.873C4.92679 11.4622 4.5012 13.2227 4.50098 15.009ZM15.751 26.259C13.1684 26.2629 10.6638 25.3744 8.66098 23.744C9.46714 22.5899 10.5401 21.6477 11.7887 20.9974C13.0373 20.3471 14.4245 20.008 15.8322 20.009C17.2224 20.0079 18.5928 20.3385 19.8296 20.9733C21.0664 21.6081 22.1339 22.5288 22.9435 23.659C20.9251 25.3424 18.3792 26.2627 15.751 26.259Z" fill="#D4A373"/>
</svg>
