<svg width="31" height="30" viewBox="0 0 31 30" fill="none" xmlns="http://www.w3.org/2000/svg">
<path fill-rule="evenodd" clip-rule="evenodd" d="M20.3457 11.25C20.3457 12.5761 19.8189 13.8479 18.8812 14.7855C17.9436 15.7232 16.6718 16.25 15.3457 16.25C14.0196 16.25 12.7479 15.7232 11.8102 14.7855C10.8725 13.8479 10.3457 12.5761 10.3457 11.25C10.3457 9.92392 10.8725 8.65215 11.8102 7.71447C12.7479 6.77678 14.0196 6.25 15.3457 6.25C16.6718 6.25 17.9436 6.77678 18.8812 7.71447C19.8189 8.65215 20.3457 9.92392 20.3457 11.25ZM17.8457 11.25C17.8457 11.913 17.5823 12.5489 17.1135 13.0178C16.6446 13.4866 16.0087 13.75 15.3457 13.75C14.6827 13.75 14.0468 13.4866 13.5779 13.0178C13.1091 12.5489 12.8457 11.913 12.8457 11.25C12.8457 10.587 13.1091 9.95107 13.5779 9.48223C14.0468 9.01339 14.6827 8.75 15.3457 8.75C16.0087 8.75 16.6446 9.01339 17.1135 9.48223C17.5823 9.95107 17.8457 10.587 17.8457 11.25Z" fill="#597F34"/>
<path fill-rule="evenodd" clip-rule="evenodd" d="M15.3457 1.25C7.75195 1.25 1.5957 7.40625 1.5957 15C1.5957 22.5938 7.75195 28.75 15.3457 28.75C22.9395 28.75 29.0957 22.5938 29.0957 15C29.0957 7.40625 22.9395 1.25 15.3457 1.25ZM4.0957 15C4.0957 17.6125 4.98695 20.0175 6.4807 21.9275C7.52974 20.5499 8.88308 19.4334 10.435 18.6654C11.9869 17.8973 13.6954 17.4985 15.427 17.5C17.1361 17.4984 18.8231 17.8869 20.3594 18.636C21.8956 19.385 23.2407 20.4749 24.292 21.8225C25.375 20.402 26.1042 18.744 26.4193 16.9857C26.7344 15.2275 26.6262 13.4194 26.1038 11.7112C25.5814 10.003 24.6597 8.44381 23.4151 7.16255C22.1704 5.88128 20.6385 4.91482 18.9462 4.34314C17.2538 3.77145 15.4497 3.61096 13.683 3.87497C11.9164 4.13897 10.2379 4.81986 8.78666 5.86132C7.33539 6.90277 6.15297 8.27484 5.33724 9.86399C4.52151 11.4532 4.09593 13.2137 4.0957 15ZM15.3457 26.25C12.7631 26.2539 10.2585 25.3654 8.2557 23.735C9.06186 22.5809 10.1349 21.6386 11.3834 20.9884C12.632 20.3381 14.0192 19.999 15.427 20C16.8172 19.9989 18.1876 20.3295 19.4244 20.9643C20.6612 21.5991 21.7287 22.5198 22.5382 23.65C20.5198 25.3334 17.9739 26.2537 15.3457 26.25Z" fill="#597F34"/>
</svg>
