<svg width="33" height="28" viewBox="0 0 33 28" fill="none" xmlns="http://www.w3.org/2000/svg">
<path d="M23.8374 0.0991211C20.7179 0.0991211 18.0055 1.49938 16.4102 3.84595C14.8148 1.49938 12.1024 0.0991211 8.98295 0.0991211C6.62002 0.10186 4.35465 1.03744 2.6838 2.70062C1.01296 4.3638 0.0730644 6.61877 0.0703125 8.97086C0.0703125 13.2884 2.77381 17.782 8.10654 22.3243C10.5502 24.397 13.1897 26.2292 15.9883 27.7952C16.118 27.8646 16.2629 27.9009 16.4102 27.9009C16.5574 27.9009 16.7023 27.8646 16.832 27.7952C19.6306 26.2292 22.2701 24.397 24.7138 22.3243C30.0465 17.782 32.75 13.2884 32.75 8.97086C32.7472 6.61877 31.8074 4.3638 30.1365 2.70062C28.4657 1.03744 26.2003 0.10186 23.8374 0.0991211ZM16.4102 25.9913C13.9725 24.591 1.85284 17.2098 1.85284 8.97086C1.85481 7.08912 2.60664 5.285 3.94337 3.95441C5.2801 2.62381 7.09253 1.87543 8.98295 1.87347C11.9954 1.87347 14.5251 3.47482 15.5857 6.05354C15.6529 6.21625 15.7671 6.35543 15.9139 6.45337C16.0607 6.55132 16.2334 6.60361 16.4102 6.60361C16.5869 6.60361 16.7596 6.55132 16.9064 6.45337C17.0532 6.35543 17.1674 6.21625 17.2346 6.05354C18.2952 3.47482 20.8249 1.87347 23.8374 1.87347C25.7278 1.87543 27.5402 2.62381 28.8769 3.95441C30.2137 5.285 30.9655 7.08912 30.9675 8.97086C30.9675 17.2098 18.8478 24.591 16.4102 25.9913Z" fill="#FFFCE9"/>
</svg>
