<svg width="46" height="46" viewBox="0 0 46 46" fill="none" xmlns="http://www.w3.org/2000/svg">
<path d="M38.3145 13.9753H23.2834L18.3791 9.07105C18.1509 8.84207 17.8797 8.6605 17.581 8.53681C17.2823 8.41312 16.9621 8.34975 16.6389 8.35035H7.37695C6.72427 8.35035 6.09832 8.60962 5.63681 9.07114C5.17529 9.53265 4.91602 10.1586 4.91602 10.8113V36.2328C4.91648 36.8564 5.16443 37.4544 5.6054 37.8953C6.04638 38.3363 6.64434 38.5843 7.26797 38.5847H38.4709C39.0819 38.5843 39.6678 38.3413 40.0999 37.9092C40.532 37.4772 40.7749 36.8913 40.7754 36.2802V16.4363C40.7754 15.7836 40.5161 15.1577 40.0546 14.6961C39.5931 14.2346 38.9671 13.9753 38.3145 13.9753ZM7.37695 10.4597H16.6389C16.732 10.4601 16.8211 10.4974 16.8867 10.5634L20.2986 13.9753H7.02539V10.8113C7.02539 10.718 7.06243 10.6286 7.12836 10.5627C7.19429 10.4968 7.28371 10.4597 7.37695 10.4597ZM38.666 36.2802C38.666 36.332 38.6455 36.3816 38.6089 36.4182C38.5723 36.4548 38.5226 36.4753 38.4709 36.4753H7.26797C7.20392 36.4744 7.14274 36.4486 7.09744 36.4033C7.05215 36.358 7.0263 36.2968 7.02539 36.2328V16.0847H38.3145C38.4077 16.0847 38.4971 16.1218 38.563 16.1877C38.629 16.2536 38.666 16.343 38.666 16.4363V36.2802Z" fill="#597F34"/>
</svg>
