<svg width="31" height="31" viewBox="0 0 31 31" fill="none" xmlns="http://www.w3.org/2000/svg">
<path fill-rule="evenodd" clip-rule="evenodd" d="M21.122 11.7959C21.122 13.2425 20.5473 14.6299 19.5244 15.6528C18.5015 16.6758 17.1141 17.2504 15.6674 17.2504C14.2208 17.2504 12.8334 16.6758 11.8105 15.6528C10.7876 14.6299 10.2129 13.2425 10.2129 11.7959C10.2129 10.3492 10.7876 8.96186 11.8105 7.93894C12.8334 6.91601 14.2208 6.34134 15.6674 6.34134C17.1141 6.34134 18.5015 6.91601 19.5244 7.93894C20.5473 8.96186 21.122 10.3492 21.122 11.7959ZM18.3947 11.7959C18.3947 12.5192 18.1074 13.2129 17.5959 13.7244C17.0844 14.2358 16.3908 14.5232 15.6674 14.5232C14.9441 14.5232 14.2504 14.2358 13.739 13.7244C13.2275 13.2129 12.9402 12.5192 12.9402 11.7959C12.9402 11.0726 13.2275 10.3789 13.739 9.86741C14.2504 9.35595 14.9441 9.06861 15.6674 9.06861C16.3908 9.06861 17.0844 9.35595 17.5959 9.86741C18.1074 10.3789 18.3947 11.0726 18.3947 11.7959Z" fill="#FFFCE9"/>
<path fill-rule="evenodd" clip-rule="evenodd" d="M15.668 0.88681C7.38388 0.88681 0.667969 7.60272 0.667969 15.8868C0.667969 24.1709 7.38388 30.8868 15.668 30.8868C23.9521 30.8868 30.668 24.1709 30.668 15.8868C30.668 7.60272 23.9521 0.88681 15.668 0.88681ZM3.39524 15.8868C3.39524 18.7368 4.36751 21.3604 5.99706 23.4441C7.14147 21.9412 8.61783 20.7233 10.3108 19.8854C12.0038 19.0476 13.8676 18.6124 15.7566 18.6141C17.6211 18.6123 19.4615 19.0362 21.1374 19.8533C22.8134 20.6705 24.2806 21.8594 25.4275 23.3295C26.609 21.7799 27.4046 19.9712 27.7483 18.0531C28.092 16.1349 27.974 14.1625 27.4041 12.2991C26.8342 10.4356 25.8287 8.7346 24.4709 7.33686C23.1131 5.93912 21.4419 4.8848 19.5958 4.26114C17.7496 3.63748 15.7814 3.46241 13.8541 3.75041C11.9269 4.03841 10.0959 4.78121 8.51265 5.91734C6.92944 7.05347 5.63953 8.55027 4.74964 10.2839C3.85976 12.0175 3.39549 13.9381 3.39524 15.8868ZM15.668 28.1595C12.8506 28.1638 10.1183 27.1946 7.93342 25.4159C8.81287 24.1569 9.98343 23.129 11.3455 22.4196C12.7076 21.7102 14.2209 21.3403 15.7566 21.3414C17.2732 21.3401 18.7682 21.7008 20.1174 22.3933C21.4667 23.0858 22.6312 24.0903 23.5143 25.3232C21.3125 27.1596 18.5351 28.1636 15.668 28.1595Z" fill="#FFFCE9"/>
</svg>
